<?xml version="1.0" encoding="UTF-8"?><svg id="a" xmlns="http://www.w3.org/2000/svg" viewBox="0 0 482.07249 482.07249"><circle id="b" cx="241.03625" cy="241.03625" r="237.49294" style="fill:none; stroke:#103778; stroke-miterlimit:11.33858; stroke-width:7.08661px;"/><circle id="c" cx="242.46914" cy="243.59681" r="201.66075" style="fill:#fff; stroke:#103778; stroke-miterlimit:11.33858; stroke-width:2.83465px;"/><g id="d" style="isolation:isolate;"><g style="isolation:isolate;"><path d="M166.68848,132.95862c0-3.81006-.33936-7.07568-1.01611-9.79736-.6792-2.72119-1.92969-4.91943-3.75146-6.59912-1.82471-1.67773-4.35303-2.90234-7.58203-3.67383-3.23145-.77002-7.40088-1.15674-12.50537-1.15674-3.33691,0-7.08838.15918-11.25537.47607-4.16943.31885-8.91064.74854-14.22559,1.29297l-1.71924-12.65479c10.21191-1.36084,19.69629-2.56201,28.45068-3.60596,8.75391-1.04199,16.96094-1.94971,24.62061-2.72168,7.65967-.76953,14.82373-1.33691,21.49414-1.70068,6.66846-.36133,12.9751-.54443,18.91504-.54443,16.46533,0,32.06982-.1123,46.81787-.33984,14.74609-.22559,27.82617-.45312,39.23828-.68066,11.41016-.2251,20.79102-.45264,28.13672-.68018,7.34766-.22559,11.85352-.34033,13.52344-.34033,4.79102,0,8.46484.97607,11.01953,2.92578,2.55273,1.95166,3.83008,4.96631,3.83008,9.04883,0,1.63281-.18359,4.80908-.54688,9.5249-.36719,4.71777-.83594,10.13721-1.40625,16.26074-.57422,6.12305-1.22656,12.58643-1.95508,19.39014-.73047,6.80322-1.51172,13.1543-2.34375,19.0498l-15.00781-.4082c.20703-3.44629.36328-6.66748.46875-9.66113.10352-2.99365.15625-5.8042.15625-8.43652,0-7.61963-.52148-13.81104-1.5625-18.57373-1.04297-4.76221-2.94531-8.50439-5.70703-11.22559-2.76172-2.72168-6.54102-4.58008-11.33203-5.5791-4.79492-.99707-10.89258-1.5415-18.29102-1.63281-10.31641-.08936-19.38281-.15723-27.19922-.2041-7.81641-.04492-15.32031-.06836-22.50977-.06836h-8.28516c-3.96289,0-8,.02344-12.11572.06836-4.11768.04688-9.09326.15918-14.92871.33984-.20996,7.53076-.44434,15.94385-.70312,25.2417-.26172,9.29932-.54736,19.25391-.85986,29.86768-.3125,10.61328-.65234,21.81836-1.01611,33.60938-.36621,11.79395-.75732,23.94873-1.17236,36.46729,13.44385.54443,25.37549.93115,35.79785,1.15674,10.41992.22754,20.06055.34033,28.91992.34033,10.73242,0,20.24414-.29346,28.5293-.88477,8.2832-.58887,16.125-1.51807,23.52539-2.78955,1.66602,3.99316,2.50195,7.57568,2.50195,10.75,0,2.63184-.93945,4.85352-2.81445,6.66797-1.875,1.81543-4.5332,3.28809-7.97266,4.42188-3.43945,1.13477-7.60742,1.95215-12.50586,2.44922-4.89844.5-10.37109.74805-16.41406.74805-10.73438,0-22.90039-.52051-36.5-1.56445-13.60156-1.04199-28.16553-2.33496-43.69287-3.87793-.20996,5.26172-.46875,11.58887-.78174,18.98145-.3125,7.39551-.67871,15.26367-1.09424,23.6084-.41748,8.34766-.91309,16.89648-1.48486,25.65039-.57422,8.75488-1.14795,17.14453-1.71973,25.17285-.57373,8.02832-1.19922,15.37598-1.87549,22.04395-.6792,6.66699-1.38281,12.13379-2.11035,16.39648,10.10693-1.26953,19.95508-2.19824,29.54492-2.79004,9.5874-.58887,18.28857-.88379,26.10498-.88379,10.94336,0,21.18164.25098,30.71875.74805,9.53516.5,18.99219.74805,28.37109.74805,6.25391,0,11.75-.74805,16.49219-2.24512,4.74219-1.49609,8.88477-4.1709,12.42773-8.02832,3.54297-3.85449,6.48828-9.04883,8.83203-15.58008,2.3457-6.53125,4.19531-14.83105,5.55078-24.90039l14.06836.67969c-.3125,15.24023-1.5625,27.80566-3.75195,37.69238-2.1875,9.88867-5.23633,17.68945-9.14453,23.4043s-8.67578,9.68164-14.30469,11.90625c-5.62695,2.22168-11.98438,3.33398-19.07031,3.33398-5.62695,0-11.83008-.45508-18.60156-1.36133-6.77734-.90723-14.17578-1.92871-22.19922-3.06152-8.02539-1.13574-16.70117-2.15332-26.02734-3.06152-9.32812-.90625-19.35938-1.36035-30.0918-1.36035-9.48438,0-19.93115.52246-31.34277,1.56445s-23.11133,2.78906-35.09424,5.23828l-2.81396-.27148c1.56348-9.07031,2.94336-20.04785,4.14258-32.92969,1.19678-12.87988,2.2666-26.96289,3.20459-42.25.93799-15.28516,1.71973-31.40918,2.34521-48.37402.625-16.96191,1.14551-34.08594,1.56299-51.3667.41504-17.28125.70361-34.37939.85986-51.29883.15625-16.91748.23438-32.95068.23438-48.10156Z" style="fill:#103778; stroke-width:0px;"/></g><g style="isolation:isolate;"><path d="M166.68848,132.95862c0-3.81006-.33936-7.07568-1.01611-9.79736-.6792-2.72119-1.92969-4.91943-3.75146-6.59912-1.82471-1.67773-4.35303-2.90234-7.58203-3.67383-3.23145-.77002-7.40088-1.15674-12.50537-1.15674-3.33691,0-7.08838.15918-11.25537.47607-4.16943.31885-8.91064.74854-14.22559,1.29297l-1.71924-12.65479c10.21191-1.36084,19.69629-2.56201,28.45068-3.60596,8.75391-1.04199,16.96094-1.94971,24.62061-2.72168,7.65967-.76953,14.82373-1.33691,21.49414-1.70068,6.66846-.36133,12.9751-.54443,18.91504-.54443,16.46533,0,32.06982-.1123,46.81787-.33984,14.74609-.22559,27.82617-.45312,39.23828-.68066,11.41016-.2251,20.79102-.45264,28.13672-.68018,7.34766-.22559,11.85352-.34033,13.52344-.34033,4.79102,0,8.46484.97607,11.01953,2.92578,2.55273,1.95166,3.83008,4.96631,3.83008,9.04883,0,1.63281-.18359,4.80908-.54688,9.5249-.36719,4.71777-.83594,10.13721-1.40625,16.26074-.57422,6.12305-1.22656,12.58643-1.95508,19.39014-.73047,6.80322-1.51172,13.1543-2.34375,19.0498l-15.00781-.4082c.20703-3.44629.36328-6.66748.46875-9.66113.10352-2.99365.15625-5.8042.15625-8.43652,0-7.61963-.52148-13.81104-1.5625-18.57373-1.04297-4.76221-2.94531-8.50439-5.70703-11.22559-2.76172-2.72168-6.54102-4.58008-11.33203-5.5791-4.79492-.99707-10.89258-1.5415-18.29102-1.63281-10.31641-.08936-19.38281-.15723-27.19922-.2041-7.81641-.04492-15.32031-.06836-22.50977-.06836h-8.28516c-3.96289,0-8,.02344-12.11572.06836-4.11768.04688-9.09326.15918-14.92871.33984-.20996,7.53076-.44434,15.94385-.70312,25.2417-.26172,9.29932-.54736,19.25391-.85986,29.86768-.3125,10.61328-.65234,21.81836-1.01611,33.60938-.36621,11.79395-.75732,23.94873-1.17236,36.46729,13.44385.54443,25.37549.93115,35.79785,1.15674,10.41992.22754,20.06055.34033,28.91992.34033,10.73242,0,20.24414-.29346,28.5293-.88477,8.2832-.58887,16.125-1.51807,23.52539-2.78955,1.66602,3.99316,2.50195,7.57568,2.50195,10.75,0,2.63184-.93945,4.85352-2.81445,6.66797-1.875,1.81543-4.5332,3.28809-7.97266,4.42188-3.43945,1.13477-7.60742,1.95215-12.50586,2.44922-4.89844.5-10.37109.74805-16.41406.74805-10.73438,0-22.90039-.52051-36.5-1.56445-13.60156-1.04199-28.16553-2.33496-43.69287-3.87793-.20996,5.26172-.46875,11.58887-.78174,18.98145-.3125,7.39551-.67871,15.26367-1.09424,23.6084-.41748,8.34766-.91309,16.89648-1.48486,25.65039-.57422,8.75488-1.14795,17.14453-1.71973,25.17285-.57373,8.02832-1.19922,15.37598-1.87549,22.04395-.6792,6.66699-1.38281,12.13379-2.11035,16.39648,10.10693-1.26953,19.95508-2.19824,29.54492-2.79004,9.5874-.58887,18.28857-.88379,26.10498-.88379,10.94336,0,21.18164.25098,30.71875.74805,9.53516.5,18.99219.74805,28.37109.74805,6.25391,0,11.75-.74805,16.49219-2.24512,4.74219-1.49609,8.88477-4.1709,12.42773-8.02832,3.54297-3.85449,6.48828-9.04883,8.83203-15.58008,2.3457-6.53125,4.19531-14.83105,5.55078-24.90039l14.06836.67969c-.3125,15.24023-1.5625,27.80566-3.75195,37.69238-2.1875,9.88867-5.23633,17.68945-9.14453,23.4043s-8.67578,9.68164-14.30469,11.90625c-5.62695,2.22168-11.98438,3.33398-19.07031,3.33398-5.62695,0-11.83008-.45508-18.60156-1.36133-6.77734-.90723-14.17578-1.92871-22.19922-3.06152-8.02539-1.13574-16.70117-2.15332-26.02734-3.06152-9.32812-.90625-19.35938-1.36035-30.0918-1.36035-9.48438,0-19.93115.52246-31.34277,1.56445s-23.11133,2.78906-35.09424,5.23828l-2.81396-.27148c1.56348-9.07031,2.94336-20.04785,4.14258-32.92969,1.19678-12.87988,2.2666-26.96289,3.20459-42.25.93799-15.28516,1.71973-31.40918,2.34521-48.37402.625-16.96191,1.14551-34.08594,1.56299-51.3667.41504-17.28125.70361-34.37939.85986-51.29883.15625-16.91748.23438-32.95068.23438-48.10156Z" style="fill:none; stroke:#103778; stroke-linecap:round; stroke-linejoin:round; stroke-width:.5px;"/></g></g></svg>